<svg width="227" height="229" viewBox="0 0 227 229" fill="none" xmlns="http://www.w3.org/2000/svg">
<path d="M192.212 103.33C192.212 103.33 208.825 125.125 166.039 153.647C123.251 182.169 63.6002 191.606 51.73 160.891C39.8597 130.176 50.9424 139.27 96.5502 134.013C142.157 128.756 172.523 81.0514 179.861 86.2507C187.195 91.4516 192.212 103.33 192.212 103.33" fill="#F9A332"/>
<path d="M88.5646 175.909C75.6888 175.909 64.769 172.852 57.8008 166.093C60.8837 164.629 63.3245 163.142 65.3638 161.901C67.6882 160.486 69.5711 159.34 70.7404 159.34C70.8655 159.34 70.9828 159.352 71.0913 159.38C71.6853 159.53 72.3108 160.178 73.0034 161.359C75.0074 164.774 77.7432 166.642 80.7356 166.642C80.8559 166.642 80.9764 166.638 81.0976 166.633C84.2654 166.478 87.1869 164.164 88.9131 160.442C89.9368 158.235 91.2737 156.895 92.9992 156.344C93.6389 156.14 94.3526 156.037 95.1371 156.037C98.0177 156.037 101.865 157.412 106.614 160.144C106.633 160.154 106.649 160.164 106.667 160.174C108.642 161.354 110.857 162.07 113.474 162.138C113.688 162.144 113.899 162.146 114.108 162.146C121.346 162.146 124.761 158.817 126.825 156.805C127.362 156.281 128.175 155.489 128.449 155.467C128.452 155.467 128.692 155.502 129.237 156.05C126.807 158.913 121.819 164.462 114.198 164.462C110.928 164.462 107.174 163.439 102.93 160.745C101.065 159.562 99.1563 159.068 97.4315 159.068C92.5051 159.068 89.0784 163.102 92.4831 166.63C93.8828 168.081 96.695 168.586 99.9282 168.586C105.154 168.586 111.476 167.268 114.699 166.499C121.168 164.91 127.763 162.798 134.317 160.22C135.515 160.757 136.741 161.04 137.899 161.04C139.045 161.04 140.125 160.762 141.045 160.177C141.83 159.678 143.083 158.551 143.404 156.331C151.211 152.719 158.851 148.468 166.038 143.677C182.734 132.546 190.385 122.442 193.507 114.256C193.523 115.545 193.426 116.947 193.167 118.455C192.746 120.91 191.93 123.396 190.733 125.903C186.572 132.909 179.054 140.962 166.038 149.639C141.705 165.86 111.916 175.909 88.5646 175.909ZM142.043 149.448C141.967 149.276 141.887 149.101 141.804 148.923C141.534 148.348 141.29 147.743 141.071 147.108C141.109 147.108 141.144 147.108 141.182 147.108C149.502 147.108 152.669 142.969 156.505 137.954C157.861 136.182 159.262 134.349 161.06 132.418C164.304 128.934 169.27 128.722 174.073 128.516C177.232 128.382 180.26 128.252 182.563 127.108C176.966 132.698 169.598 127.103 165.189 134.124C160.175 142.111 155.717 147.716 146.246 148.836C144.706 149.018 143.313 149.22 142.043 149.448M186.418 120.696C186.441 120.265 186.441 119.814 186.42 119.342C186.253 115.541 186.233 112.946 186.643 111.762C186.865 111.122 187.152 110.953 188.669 110.288C189.667 109.85 190.946 109.289 192.542 108.287C192.772 108.992 192.984 109.789 193.153 110.674C186.895 112.186 189.335 113.722 186.418 120.696Z" fill="#BF6700"/>
<path d="M178.525 87.7518C178.093 87.7518 177.018 88.0015 174.669 89.6599C171.932 91.5935 168.372 94.7862 164.248 98.4814C149.143 112.022 126.315 132.487 96.7656 135.893C85.9606 137.138 77.1158 137.581 70.0084 137.937C59.0366 138.487 51.7882 138.85 49.8842 141.805C48.0618 144.632 50.0061 151.205 53.4847 160.206C56.3432 167.604 62.2839 172.788 71.1413 175.617C94.0753 182.94 133.547 173.038 165 152.071C181.546 141.041 191.286 129.417 193.168 118.454C194.643 109.865 190.876 104.69 190.715 104.475C190.623 104.352 190.541 104.212 190.482 104.071C190.417 103.916 185.569 92.6119 178.778 87.7981C178.775 87.7966 178.707 87.7518 178.525 87.7518M88.599 181.829C81.7007 181.83 75.45 180.962 70.0036 179.222C60.0075 176.031 53.2706 170.094 49.9793 161.577C45.7681 150.682 44.0033 143.976 46.7282 139.747C49.6795 135.167 56.8335 134.809 69.8211 134.159C76.8751 133.805 85.6531 133.366 96.3376 132.134C124.704 128.865 146.996 108.881 161.748 95.6581C171.613 86.8141 177.045 81.942 180.944 84.7056C188.185 89.8394 193.133 100.729 193.858 102.393C194.691 103.597 198.446 109.651 196.898 118.952C194.866 131.185 184.832 143.389 167.079 155.224C151.633 165.521 133.524 173.628 116.086 178.053C106.173 180.567 96.9159 181.829 88.599 181.829Z" fill="#6D184E"/>
<path d="M43.8739 141.55C43.8739 141.55 33.0101 139.869 32.035 147.294C31.0601 154.72 43.0383 151.778 42.8991 157.523C42.7598 163.267 42.6205 170.833 54.8779 165.649C67.1345 160.465 70.4771 153.895 74.3775 160.543C78.2771 167.19 84.5451 166.069 87.4697 159.764C90.3951 153.459 96.1446 152.274 107.408 158.752C113.434 162.217 116.704 157.28 120.795 152.341C124.349 148.051 128.523 143.761 135.663 144.983C151.018 147.61 151.681 140.149 159.897 131.322C168.115 122.495 185.387 132.162 184.83 119.411C184.273 106.662 185.595 111.461 193.221 105.892C200.847 100.322 200.742 87.2914 185.804 88.4482C170.866 89.6035 133.713 143.511 43.8739 141.55" fill="#48C75A"/>
<path d="M184.957 108.744C185.521 106.389 188.211 104.956 193.795 100.585C194.781 99.812 195.768 98.5298 196.597 97.2417C196.393 99.9159 194.807 102.752 192.285 104.595C190.191 106.122 188.642 106.802 187.396 107.348C186.369 107.798 185.571 108.22 184.957 108.744" fill="#B6E9BD"/>
<path d="M145.797 143.297C150.716 140.614 153.059 134.937 158.514 128.656C165.388 120.74 178.187 125.799 183.146 121.375C182.999 122.249 182.7 122.93 182.239 123.435C180.793 125.019 177.463 125.162 173.938 125.312C168.749 125.533 162.867 125.785 158.734 130.225C156.831 132.269 155.316 134.251 153.979 135.998C151.259 139.554 149.266 142.161 145.797 143.297Z" fill="#B6E9BD"/>
<path d="M48.1361 165.779C47.2714 165.779 46.579 165.607 46.0738 165.259C44.3349 164.066 44.4222 160.46 44.4923 157.562C44.5867 153.686 40.9216 152.539 38.2463 151.703C34.7091 150.596 33.2997 149.907 33.6153 147.505C33.784 146.22 34.3313 145.244 35.2886 144.519C36.5546 143.561 38.3934 143.165 40.068 143.039C44.8142 150.454 52.0672 154.577 60.5422 154.577C61.6164 154.577 62.7116 154.51 63.8219 154.376C74.3214 152.932 84.8808 150.678 95.4206 147.637C95.8313 148.2 96.235 148.759 96.6331 149.312C97.7025 150.792 98.7395 152.23 99.7879 153.573C98.0934 153.078 96.5426 152.831 95.1271 152.831C94.0146 152.831 92.9846 152.983 92.0357 153.287C89.4493 154.113 87.4271 156.064 86.0258 159.086C84.8084 161.71 82.909 163.333 80.9451 163.429C80.8892 163.431 80.8342 163.432 80.7783 163.432C78.9395 163.432 77.162 162.134 75.7504 159.728C74.5866 157.744 73.3536 156.645 71.8705 156.27C71.4952 156.175 71.1199 156.13 70.7414 156.13C68.6868 156.13 66.5302 157.442 63.714 159.157C61.2804 160.638 58.2519 162.482 54.2594 164.171C51.7328 165.239 49.665 165.779 48.1361 165.779M141.331 143.928C140.98 143.928 140.617 143.919 140.241 143.901C139.509 139.934 139.635 135.249 140.793 130.354C154.495 123.979 167.28 116.498 178.964 108.006C184.637 103.738 187.947 97.9615 188.7 91.4549C188.796 91.4347 188.889 91.4159 188.984 91.3972C189.801 96.2685 188.978 102.627 182.461 108.624C169.368 120.673 154.604 123.896 147.918 130.761C143.89 134.899 143.452 140.203 143.741 143.768C143.004 143.873 142.205 143.928 141.331 143.928" fill="#539256"/>
<path d="M41.4048 142.989C39.4542 142.989 36.9048 143.296 35.2887 144.519C34.3314 145.244 33.784 146.22 33.6152 147.505C33.2998 149.907 34.709 150.597 38.2464 151.703C40.9216 152.54 44.5867 153.687 44.4922 157.562C44.4222 160.46 44.3348 164.067 46.0738 165.259C47.4735 166.22 50.3039 165.844 54.2593 164.171C58.2517 162.483 61.2802 160.639 63.7139 159.157C67.0486 157.126 69.4595 155.661 71.8704 156.27C73.3536 156.645 74.5864 157.745 75.7502 159.728C77.2043 162.207 79.047 163.51 80.9449 163.429C82.9089 163.334 84.8084 161.71 86.0256 159.086C87.427 156.064 89.449 154.113 92.0355 153.288C95.9634 152.031 101.251 153.365 108.199 157.36C112.386 159.768 114.647 157.345 118.611 152.487C122.451 147.776 127.23 141.914 135.93 143.402C146.883 145.278 149.403 141.981 153.979 135.999C155.316 134.251 156.831 132.27 158.734 130.226C162.867 125.786 168.75 125.534 173.938 125.312C177.463 125.162 180.793 125.019 182.238 123.435C182.99 122.61 183.317 121.317 183.236 119.483C182.844 110.5 183.31 109.139 187.396 107.348C188.641 106.801 190.193 106.122 192.285 104.594C195.737 102.071 197.436 97.6916 196.235 94.4057C195.053 91.1711 191.393 89.6211 185.926 90.0471C182.266 90.3296 176.28 94.7909 168.7 100.44C157.926 108.469 143.169 119.468 122.837 128.326C98.8369 138.785 72.2535 143.775 43.8392 143.153C43.7708 143.151 43.7023 143.145 43.6338 143.136C43.1436 143.061 42.3434 142.989 41.4048 142.989M48.1204 168.979C46.5915 168.979 45.3161 168.622 44.2775 167.909C41.1058 165.733 41.2166 161.159 41.3056 157.483C41.3355 156.24 40.3314 155.714 37.299 154.765C34.2954 153.826 29.7561 152.405 30.4549 147.085C30.7378 144.929 31.7227 143.201 33.3817 141.95C37.1118 139.136 43.0823 139.822 44.0044 139.949C108.479 141.326 144.984 114.121 166.803 97.8638C175.416 91.4446 181.107 87.2039 185.681 86.8488C195.502 86.0919 198.426 91.1077 199.228 93.2983C200.931 97.9575 198.798 103.8 194.158 107.188C191.783 108.923 189.984 109.711 188.67 110.288C187.153 110.953 186.866 111.122 186.644 111.763C186.234 112.946 186.255 115.54 186.422 119.342C186.54 122.071 185.941 124.119 184.588 125.603C182.25 128.167 178.277 128.337 174.074 128.516C169.271 128.721 164.304 128.934 161.062 132.418C159.262 134.349 157.861 136.181 156.505 137.954C151.887 143.992 148.239 148.761 135.394 146.564C128.52 145.388 124.735 150.03 121.074 154.52C117.448 158.968 113.336 164.009 106.616 160.144C100.571 156.668 95.9901 155.39 93.0001 156.344C91.2745 156.895 89.9377 158.236 88.9141 160.442C87.1877 164.164 84.2662 166.478 81.0984 166.633C77.9653 166.789 75.0893 164.912 73.0041 161.359C72.3118 160.178 71.6863 159.53 71.0921 159.38C69.9701 159.097 67.9377 160.334 65.3647 161.901C62.8421 163.436 59.7027 165.348 55.4954 167.127C52.5739 168.363 50.1292 168.979 48.1204 168.979" fill="#6D184E"/>
<path d="M160.202 61.9646C158.265 62.744 156.6 63.9738 155.233 65.5486C146.915 71.3094 128.794 82.9089 105.804 92.0488C82.8976 101.389 61.8251 105.571 51.8528 107.175C49.7833 106.986 47.7351 107.251 45.798 108.031C36.9618 111.589 33.7851 124.493 38.7031 136.851C43.6208 149.21 53.3887 154.021 63.6073 152.787C86.3462 149.66 106.67 143.074 123.292 135.993C140.179 129.581 159.408 120.241 178.011 106.721C186.254 100.522 190.024 90.2604 185.106 77.9002C180.189 65.5414 169.038 58.4079 160.202 61.9646" fill="#DB2839"/>
<path d="M60.4791 151.376C51.3581 151.376 44.057 145.992 40.1826 136.256C39.8875 135.514 39.6216 134.768 39.3848 134.019C39.9921 133.808 40.6154 133.598 41.2503 133.396C40.8002 135.464 40.724 137.589 41.8719 139.344C43.0145 141.091 45.079 142.083 48.1832 142.377C48.638 142.42 49.0818 142.44 49.5153 142.44C55.9587 142.44 60.1053 137.897 63.1851 134.523C65.0712 132.457 66.8525 130.505 68.3136 130.505C68.3247 130.505 68.3357 130.505 68.346 130.505C69.1996 130.522 70.2107 131.217 71.3517 132.569C75.3944 137.366 80.682 139.975 86.3189 139.975C86.5723 139.975 86.8271 139.97 87.0821 139.959C87.7635 139.93 88.4378 139.863 89.1036 139.758C90.6661 141.456 92.0699 143.182 93.3761 144.888C83.3745 147.718 73.3628 149.827 63.4172 151.196C62.4186 151.316 61.4391 151.376 60.4791 151.376M67.8046 134.467C67.5567 134.467 67.338 134.599 67.135 134.895C66.3301 136.069 64.6108 137.71 62.8011 139.285C61.6098 140.322 61.9654 142.242 63.4314 142.822C66.0523 143.858 68.8463 144.358 71.7128 144.358C72.7286 144.358 73.7539 144.295 74.7831 144.171C74.8144 144.166 74.846 144.162 74.8775 144.158C76.8665 143.883 77.3324 141.204 75.5643 140.248C71.0582 137.81 69.0564 134.467 67.8046 134.467M142 126.242C143.913 120.798 147.119 115.276 151.849 110.345C152.577 110.405 153.315 110.442 154.056 110.442C154.702 110.442 155.349 110.414 155.989 110.349C154.329 112.265 152.88 114.13 151.661 115.811C150.602 117.271 151.756 119.116 153.298 119.116C153.589 119.116 153.896 119.049 154.204 118.901C158.618 116.777 163.102 114.454 167.619 111.914C159.532 117.153 150.973 121.94 142 126.242ZM166.341 100.705C166.436 100.372 166.517 100.045 166.588 99.7268C174.127 95.7494 180.414 93.528 185.406 92.2276C185.339 92.6238 185.26 93.0157 185.17 93.4049C178.061 93.8378 171.717 96.805 166.341 100.705Z" fill="#A92142"/>
<path d="M50.5773 108.719C49.1146 108.719 47.7101 108.986 46.3888 109.519C42.6042 111.044 39.8519 114.598 38.6386 119.526C37.3779 124.647 37.9256 130.587 40.1815 136.255C44.4635 147.016 52.9307 152.46 63.4161 151.195C83.1061 148.487 103.05 142.873 122.669 134.516C122.688 134.508 122.706 134.5 122.727 134.493C142.66 126.925 160.945 117.143 177.076 105.422C185.512 99.0766 187.906 89.2568 183.624 78.4962C179.042 66.9778 168.798 60.2284 160.793 63.4543L160.201 61.9648L160.793 63.4543C159.134 64.1207 157.668 65.1805 156.431 66.6032C156.343 66.7034 156.245 66.7919 156.135 66.8689C147.408 72.9126 129.341 84.4151 106.39 93.5395C83.531 102.861 62.5648 107.076 52.103 108.758C51.9716 108.779 51.8378 108.783 51.7064 108.772C51.3263 108.737 50.9502 108.719 50.5773 108.719M60.5419 154.577C50.1303 154.577 41.5625 148.355 37.2215 137.447C34.7201 131.16 34.1242 124.522 35.5439 118.755C37.0105 112.797 40.4411 108.459 45.204 106.542C47.2725 105.708 49.4882 105.38 51.7913 105.56C62.1825 103.879 82.7647 99.7125 105.205 90.5619C127.735 81.6059 145.492 70.3343 154.167 64.3384C155.71 62.6079 157.54 61.31 159.608 60.4752C169.245 56.5961 181.348 64.1439 186.584 77.3043C191.372 89.3381 188.524 100.814 178.964 108.006C162.594 119.902 144.069 129.815 123.881 137.481C104.014 145.943 83.8072 151.627 63.8214 154.376C62.7111 154.51 61.6159 154.577 60.5419 154.577Z" fill="#6D184E"/>
<path d="M41.6448 121.514C41.6448 121.514 30.9199 125.858 28.2737 133.284C26.7015 137.695 31.2237 135.234 38.1032 132.773C42.8054 131.091 48.6083 129.409 54.3192 129.921C59.5336 130.388 61.533 128.816 62.9847 127.243C65.449 124.572 66.3342 121.901 78.6939 129.22C98.3334 140.85 100.144 160.185 113.515 160.535C118.87 160.676 121.946 158.939 124.033 157.203C127.156 154.604 128.059 152.005 131.064 155.702C136.079 161.866 145.584 160.745 140.361 149.606C135.138 138.467 138.447 113.948 162.125 100.357C185.803 86.7666 198.477 89.7084 199.592 87.7477C200.707 85.7855 195.413 75.6968 178.56 75.4175C161.707 75.1368 119.365 118.432 41.6448 121.514Z" fill="#FCAF15"/>
<path d="M114.08 158.939C113.908 158.939 113.735 158.937 113.557 158.932C107.401 158.77 103.967 154.013 99.2131 147.427C97.2854 144.757 95.1533 141.803 92.5644 138.843C95.9016 137.586 98.8457 135.321 101.024 132.254C103.084 129.353 104.868 128.244 107.073 128.244C109.209 128.244 111.74 129.287 115.296 130.753C117.543 131.678 120.09 132.727 123.055 133.689C124.986 134.313 126.881 134.621 128.69 134.621C131.906 134.621 134.854 133.648 137.254 131.754C136.928 132.371 136.638 132.992 136.38 133.613C133.495 135.167 130.659 135.745 127.931 135.745C124 135.745 120.296 134.545 117.008 133.345C113.719 132.144 110.847 130.944 108.574 130.944C107.308 130.944 106.229 131.316 105.368 132.268C102.296 135.661 99.2645 139.049 97.4127 140.094C102.913 147.626 106.273 153.962 113.849 154.159C114.034 154.164 114.215 154.167 114.395 154.167C119.508 154.167 122.407 152.231 124.362 150.297C126.315 148.361 127.324 146.426 128.655 146.426C129.324 146.426 130.074 146.914 131.065 148.133C132.854 150.331 135.212 151.601 137.271 151.82C138.183 154.571 138.029 156.533 137.242 157.776C135.686 157.542 133.788 156.516 132.3 154.686C131.422 153.607 130.212 152.356 128.633 152.265C128.573 152.262 128.511 152.259 128.451 152.259C126.913 152.259 125.792 153.347 124.609 154.501C122.674 156.387 120.043 158.939 114.08 158.939M29.7012 134.042C29.7226 133.975 29.747 133.902 29.775 133.824C30.7402 131.116 32.9699 128.825 35.281 127.059C36.7304 127.029 38.2317 126.914 39.718 126.8C40.6378 126.731 41.5065 126.663 42.3587 126.617C42.4428 126.613 42.5184 126.611 42.5861 126.611C42.8048 126.611 42.9432 126.632 43.022 126.651C43.0998 127.199 42.6678 128.618 42.3122 129.729C39.3922 130.547 36.6934 131.57 34.3691 132.451C32.7383 133.069 30.796 133.804 29.7012 134.042" fill="#D18126"/>
<path d="M54.5137 129.935C63.0482 130.626 62.7942 125.753 65.9993 124.685C59.9317 123.316 61.5498 129.234 54.5137 129.935Z" fill="#F8CE36"/>
<path d="M28.1133 135.319C29.4684 137.426 39.7768 130.485 50.6805 129.871C41.7605 129.326 32.7296 133.918 28.1133 135.319Z" fill="#F8CE36"/>
<path d="M137.899 151.855C137.693 151.855 137.483 151.844 137.269 151.821C137.041 151.132 136.745 150.395 136.375 149.606C134.549 145.712 133.89 139.631 136.38 133.614C136.594 133.498 136.81 133.377 137.025 133.25C136.14 139.588 136.772 145.708 138.921 150.291C139.131 150.739 139.318 151.174 139.478 151.595C138.998 151.769 138.464 151.855 137.899 151.855Z" fill="#FED78A"/>
<path d="M137.907 157.827C137.694 157.827 137.471 157.81 137.241 157.776C138.028 156.534 138.183 154.57 137.27 151.821C137.482 151.844 137.693 151.856 137.899 151.856C138.463 151.856 138.998 151.77 139.479 151.595C140.596 154.495 140.564 156.69 139.344 157.467C138.964 157.707 138.47 157.827 137.907 157.827M136.379 133.613C136.636 132.993 136.927 132.371 137.253 131.754C137.256 131.751 137.259 131.749 137.263 131.746C137.174 132.249 137.095 132.749 137.025 133.25C136.81 133.377 136.594 133.498 136.379 133.613Z" fill="#E8C093"/>
<path d="M142.742 116.988C142.584 115.473 142.265 113.92 141.779 112.351C141.068 110.051 141.481 109.535 141.499 109.514C141.685 109.298 142.181 109.217 142.836 109.217C144.089 109.217 145.926 109.514 147.301 109.736C147.499 109.768 147.7 109.8 147.906 109.833C145.811 112.226 144.116 114.645 142.742 116.988" fill="#D18126"/>
<path d="M67.297 122.887C69.7771 122.887 73.4068 124.228 79.504 127.839C89.2318 133.599 94.7664 141.267 99.2136 147.428C103.967 154.013 107.401 158.77 113.557 158.933C119.892 159.085 122.619 156.442 124.609 154.501C125.837 153.303 127.001 152.175 128.634 152.265C130.212 152.357 131.423 153.607 132.3 154.686C134.593 157.505 137.853 158.413 139.344 157.466C140.742 156.577 140.58 153.828 138.921 150.291C135.886 143.817 135.877 134.273 138.898 125.383C141.506 117.71 147.516 106.896 161.336 98.9636C178.39 89.1764 189.943 87.8086 195.495 87.152C196.455 87.0382 197.517 86.9124 198.1 86.7789C197.981 86.2315 197.56 85.1351 196.356 83.7309C194.678 81.7747 189.583 77.2041 178.534 77.0206C173.407 76.9205 165.3 81.4547 154.069 87.7115C130.286 100.956 94.3714 120.96 42.001 123.105C40.4523 123.784 31.9384 127.755 29.7753 133.824C29.7472 133.902 29.7228 133.975 29.7016 134.042C30.7963 133.805 32.7385 133.069 34.3695 132.451C39.7081 130.428 47.0226 127.66 54.4621 128.323C59.5145 128.778 60.8717 127.236 62.3077 125.604C63.6839 124.04 64.997 122.887 67.297 122.887M114.109 162.146C113.901 162.146 113.688 162.144 113.474 162.137C105.745 161.936 101.523 156.086 96.6336 149.312C92.1375 143.083 87.042 136.024 77.8871 130.602C72.9071 127.653 69.519 126.176 67.5299 126.088C66.2442 126.039 65.7595 126.519 64.6942 127.729C63.0663 129.58 60.8347 132.111 54.1796 131.518C47.4623 130.914 40.5445 133.538 35.493 135.452C31.0422 137.138 28.5898 138.068 27.0953 136.589C25.8448 135.351 26.5443 133.387 26.7743 132.742C29.6294 124.731 40.5862 120.215 41.0504 120.027C41.2204 119.959 41.4005 119.919 41.5831 119.912C93.354 117.858 128.962 98.0279 152.524 84.9046C164.189 78.4097 172.618 73.7193 178.587 73.8148C190.543 74.0135 197.636 79.089 200.286 83.7733C200.919 84.894 201.852 87.0034 200.978 88.5426C200.253 89.8179 198.787 89.9908 195.867 90.3365C190.523 90.9689 179.406 92.2851 162.917 101.751C140.983 114.339 136.512 137.633 141.805 148.922C145.317 156.414 142.445 159.289 141.046 160.177C137.942 162.15 133.016 160.63 129.832 156.716C128.864 155.528 128.454 155.467 128.45 155.467C128.177 155.489 127.364 156.28 126.828 156.804C124.762 158.816 121.348 162.146 114.109 162.146" fill="#6D184E"/>
<path d="M125.894 142.198C125.894 142.198 121.033 151.292 113.848 150.183C108.396 149.343 117.505 150.413 119.871 143.775C122.604 136.102 127.301 140.096 125.894 142.198" fill="#F8CE36"/>
<path d="M48.3322 105.051C48.3322 105.051 29.111 106.102 26.8128 116.82C24.5147 127.539 34.5431 125.437 42.2735 125.017C50.0035 124.596 34.9607 139.519 48.3322 140.779C53.922 141.307 57.6492 138.088 60.6903 134.868C64.9235 130.388 67.8254 125.906 72.5677 131.532C80.7154 141.2 93.4598 140.149 99.7278 131.322C105.996 122.495 111.218 128.17 123.545 132.163C135.872 136.156 144.229 125.648 140.26 112.827C138.288 106.462 142.549 107.35 148.079 108.237C153.69 109.137 160.608 110.036 163.658 103.37C169.716 90.129 156.764 87.8177 172.224 84.6655C187.685 81.5117 194.37 80.462 191.864 71.9506C189.357 63.4377 183.506 57.1332 163.867 65.5402C144.229 73.9457 126.47 110.726 48.3322 105.051" fill="#48C75A"/>
<path d="M45.2442 131.032C46.0728 128.462 46.7769 126.243 45.5589 124.651C44.9263 123.823 43.9215 123.405 42.5689 123.405C42.4446 123.405 42.3171 123.408 42.1865 123.415C41.2997 123.463 40.3736 123.534 39.4774 123.603C37.862 123.726 36.1632 123.856 34.5888 123.856C34.4071 123.856 34.2267 123.854 34.0487 123.851C35.1238 119.985 37.1232 116.212 33.5507 116.212C33.452 116.212 33.3491 116.214 33.2417 116.221C31.7212 116.303 30.1122 116.449 28.5254 116.552C29.3476 113.792 31.5782 111.794 34.2637 110.346C34.571 111.922 34.9272 113.48 35.3308 115.02C41.7136 118.27 48.5961 120.481 55.843 121.719C52.9442 124.222 49.9251 128.964 45.2442 131.032M77.3119 129.574C75.5108 129.574 73.6861 129.273 71.9016 128.654C70.9487 127.92 69.9927 127.488 69.0177 127.347C67.0617 126.242 65.2025 124.712 63.5358 122.735C63.5131 122.708 63.4902 122.681 63.4674 122.655C65.7422 122.828 68.0468 122.916 70.3752 122.916C77.485 122.916 84.8271 122.113 92.2973 120.558C91.7686 121.112 91.2359 121.766 90.6961 122.526C87.4558 127.09 82.4846 129.574 77.3119 129.574M119.657 124.225C118.046 124.225 116.323 123.951 114.514 123.366C108.841 121.528 104.672 119.334 101.214 118.362C106.818 116.773 112.465 114.78 118.113 112.406C118.135 112.396 118.159 112.387 118.183 112.377C118.189 112.374 118.196 112.371 118.203 112.368C118.221 112.361 118.235 112.355 118.253 112.347C118.26 112.344 118.267 112.341 118.276 112.339C118.292 112.331 118.311 112.323 118.327 112.316C118.333 112.313 118.339 112.312 118.344 112.309C118.367 112.299 118.391 112.289 118.413 112.281L118.414 112.279C118.44 112.269 118.465 112.258 118.489 112.248C118.49 112.247 118.492 112.247 118.493 112.247C118.515 112.237 118.537 112.227 118.56 112.217C118.563 112.216 118.569 112.214 118.573 112.212C118.593 112.203 118.614 112.195 118.635 112.186C118.638 112.185 118.642 112.183 118.645 112.182C118.667 112.172 118.691 112.162 118.715 112.152L118.716 112.151C118.767 112.13 118.814 112.109 118.865 112.087C118.866 112.087 118.869 112.086 118.87 112.086C118.893 112.076 118.915 112.066 118.938 112.056C118.941 112.055 118.942 112.055 118.945 112.053C119.044 112.011 119.143 111.97 119.241 111.926L119.244 111.925C119.468 111.829 119.691 111.733 119.914 111.636L119.918 111.634C120.017 111.592 120.115 111.548 120.214 111.506L120.217 111.503C120.315 111.461 120.412 111.418 120.512 111.376C120.515 111.373 120.515 111.373 120.517 111.372C120.616 111.328 120.711 111.287 120.809 111.243C120.812 111.242 120.813 111.242 120.816 111.241C120.837 111.231 120.861 111.221 120.882 111.211C120.886 111.21 120.886 111.21 120.889 111.208C120.961 111.177 121.035 111.143 121.107 111.112C121.109 111.111 121.112 111.109 121.115 111.107C121.136 111.098 121.157 111.09 121.177 111.08C121.18 111.078 121.185 111.077 121.188 111.074C121.213 111.064 121.233 111.054 121.257 111.044H121.258C121.306 111.022 121.355 111.001 121.403 110.98C121.407 110.977 121.411 110.975 121.415 110.974C121.433 110.965 121.455 110.956 121.473 110.948C121.478 110.946 121.483 110.944 121.487 110.941C121.505 110.933 121.527 110.925 121.546 110.916C121.55 110.913 121.554 110.912 121.56 110.909C121.606 110.889 121.651 110.868 121.697 110.847C121.703 110.844 121.711 110.84 121.718 110.838C121.734 110.831 121.751 110.823 121.767 110.816C121.774 110.812 121.781 110.81 121.788 110.806C121.805 110.799 121.819 110.792 121.836 110.785C121.845 110.781 121.852 110.778 121.859 110.775C121.877 110.766 121.896 110.758 121.915 110.75C121.917 110.748 121.923 110.745 121.927 110.744C121.95 110.734 121.974 110.723 121.996 110.713C122.002 110.71 122.007 110.707 122.013 110.706C122.028 110.697 122.047 110.69 122.063 110.683C122.07 110.679 122.08 110.675 122.089 110.67C122.103 110.665 122.115 110.658 122.129 110.652C122.141 110.648 122.149 110.644 122.16 110.638C122.173 110.632 122.184 110.628 122.197 110.623C122.206 110.617 122.218 110.613 122.227 110.608C122.239 110.603 122.25 110.597 122.261 110.593C122.282 110.583 122.306 110.572 122.327 110.563C122.336 110.559 122.347 110.553 122.355 110.549C122.369 110.543 122.38 110.538 122.394 110.532C122.403 110.528 122.411 110.524 122.42 110.519C122.434 110.514 122.448 110.507 122.46 110.501C122.469 110.498 122.477 110.494 122.484 110.491C122.5 110.483 122.514 110.477 122.529 110.47C122.531 110.47 122.532 110.469 122.533 110.469C122.589 110.442 122.647 110.416 122.704 110.39C122.706 110.39 122.709 110.388 122.711 110.387C122.73 110.378 122.749 110.37 122.768 110.361L122.769 110.36C125.839 108.952 128.825 107.459 131.721 105.885C133.967 115.995 128.494 124.225 119.657 124.225M145.107 100.061C144.007 100.061 142.891 99.9706 141.791 99.838C147.056 96.348 151.922 92.5589 156.322 88.4946C156.179 90.2205 155.703 92.2244 154.628 94.5727C152.629 98.9404 148.971 100.061 145.107 100.061M168.594 74.7634C170.986 71.4555 173.103 68.0206 174.918 64.4699C174.8 64.2145 174.681 63.9591 174.562 63.705C176.279 63.3593 177.856 63.1857 179.29 63.1857C180.646 63.1857 181.875 63.341 182.971 63.6528C184.802 70.6779 179.921 72.3897 168.594 74.7634Z" fill="#539256"/>
<path d="M86.3202 136.768C86.2697 136.768 86.2183 136.767 86.166 136.767C88.9912 135.52 91.5226 133.494 93.4662 130.757C96.0462 127.123 98.4603 125.811 101.213 125.811C101.814 125.811 102.433 125.873 103.073 125.99C101.513 126.806 99.982 128.206 98.4297 130.39C95.6937 134.244 91.5091 136.564 86.9494 136.755C86.7394 136.764 86.5302 136.768 86.3202 136.768" fill="#A4E3AD"/>
<path d="M129.668 131.39C135.877 128.509 138.262 120.626 136.414 111.158C135.681 107.404 137.306 106.469 140.066 106.469C140.166 106.469 140.267 106.469 140.369 106.472C139.88 106.688 139.451 106.995 139.089 107.414C137.653 109.08 138.199 111.574 138.735 113.304C140.573 119.237 139.589 125.038 136.168 128.446C134.405 130.202 132.186 131.193 129.668 131.39ZM154.173 107.233C153.828 107.233 153.473 107.224 153.113 107.207C156.394 106.717 159.382 105.135 161.211 101.136C167.632 87.1051 153.906 84.655 170.289 81.3139C181.538 79.0204 188.4 77.7758 190.737 74.2999C190.901 75.7416 190.589 76.5138 190.296 77.0006C188.695 79.6811 182.614 80.9169 173.41 82.7874L171.905 83.0932C166.655 84.1639 164.312 85.1882 163.262 86.8718C162.294 88.4207 162.707 90.0492 163.142 91.7748C163.788 94.3234 164.59 97.4949 162.209 102.699C160.609 106.195 157.794 107.233 154.173 107.233" fill="#A4E3AD"/>
<path d="M42.5685 123.406C43.9211 123.406 44.9259 123.823 45.5585 124.652C46.7851 126.255 46.0628 128.494 45.2265 131.087C44.4617 133.457 43.5946 136.144 44.5349 137.582C45.1037 138.451 46.4304 138.99 48.4801 139.183C54.1162 139.713 57.6868 135.804 60.8365 132.353C63.2364 129.723 65.4963 127.225 68.4091 127.298C70.2425 127.335 72.0003 128.38 73.7825 130.495C77.3578 134.737 82.034 136.962 86.9486 136.755C91.5084 136.564 95.6927 134.245 98.4293 130.391C103.953 122.612 109.217 124.783 116.504 127.785C118.699 128.689 121.184 129.713 124.034 130.637C128.869 132.203 133.179 131.425 136.17 128.446C139.59 125.038 140.573 119.236 138.737 113.304C138.2 111.574 137.654 109.081 139.092 107.413C140.795 105.437 144.044 105.961 147.807 106.57C154.471 107.646 159.764 108.045 162.209 102.699C164.592 97.4951 163.788 94.3222 163.144 91.7739C162.707 90.0501 162.295 88.4203 163.262 86.8713C164.313 85.1886 166.656 84.1643 171.907 83.093L173.411 82.7873C182.615 80.9165 188.696 79.682 190.298 77.0015C190.698 76.3328 191.137 75.1307 190.335 72.406C189.071 68.1162 187.2 65.5092 184.443 64.2027C180.228 62.2055 173.514 63.1519 164.491 67.0155C159.838 69.0068 155.141 72.7837 149.704 77.1587C141.214 83.9835 130.65 92.4808 114.801 98.6855C96.2695 105.941 74.5229 108.548 48.3251 106.658C46.9205 106.757 30.3086 108.117 28.3699 117.158C27.8456 119.605 28.013 121.345 28.8681 122.331C30.5599 124.284 35.2973 123.923 39.477 123.604C40.3733 123.535 41.2994 123.464 42.1861 123.416C42.3168 123.409 42.4441 123.406 42.5685 123.406M49.5147 142.44C49.0812 142.44 48.6374 142.419 48.1826 142.377C45.0785 142.083 43.0139 141.091 41.8713 139.344C40.09 136.62 41.2561 133.004 42.194 130.097C42.5622 128.955 43.1083 127.262 43.0218 126.652C42.9179 126.627 42.7141 126.598 42.3584 126.618C41.5062 126.664 40.6376 126.731 39.7178 126.801C34.5511 127.195 29.2072 127.603 26.4653 124.439C24.8915 122.624 24.4951 120.02 25.2538 116.482C27.7793 104.703 47.4107 103.495 48.2447 103.45C48.3116 103.447 48.3793 103.447 48.4462 103.453C106.649 107.676 130.382 88.5893 147.712 74.653C153.333 70.1325 158.187 66.2278 163.243 64.0645C173.278 59.7689 180.658 58.8651 185.801 61.3017C189.439 63.027 191.851 66.2645 193.391 71.4949C194.262 74.4517 194.143 76.7928 193.03 78.6548C190.703 82.5448 184.433 83.819 174.043 85.9308L172.541 86.2364C168.649 87.03 166.437 87.8177 165.962 88.5775C165.733 88.9435 165.917 89.7297 166.234 90.9833C166.921 93.6991 167.959 97.8037 165.106 104.041C161.452 112.022 152.937 110.647 147.302 109.735C145.207 109.399 142.041 108.885 141.501 109.514C141.482 109.534 141.068 110.051 141.78 112.35C144.006 119.538 142.747 126.406 138.412 130.725C134.592 134.533 128.994 135.612 123.055 133.689C120.089 132.728 117.543 131.678 115.296 130.753C108.07 127.775 105.08 126.542 101.024 132.254C97.7117 136.919 92.6296 139.727 87.0816 139.959C81.1598 140.205 75.5756 137.582 71.351 132.569C70.2102 131.216 69.1991 130.522 68.3454 130.505C68.3351 130.505 68.3242 130.505 68.3131 130.505C66.852 130.505 65.0706 132.457 63.1845 134.522C60.1047 137.897 55.9582 142.44 49.5147 142.44" fill="#6D184E"/>
<path d="M118.114 112.407C143.89 101.571 164.44 84.9773 174.918 64.4697C163.274 39.1464 137.987 21.4707 108.54 20.9931C67.6307 20.3308 33.596 53.39 32.8826 94.5418C32.7599 101.633 33.6214 108.498 35.3309 115.02C58.5175 126.827 88.3184 124.93 118.114 112.407Z" fill="#F9A332"/>
<path d="M118.679 21.8499H118.678H118.679ZM118.602 21.8391C118.601 21.8391 118.601 21.8376 118.599 21.8376C118.601 21.8376 118.601 21.8391 118.602 21.8391ZM118.562 21.8329C118.561 21.8329 118.562 21.8329 118.561 21.8314L118.562 21.8329ZM118.525 21.8267C118.524 21.8267 118.522 21.8267 118.519 21.8252C118.522 21.8267 118.524 21.8267 118.525 21.8267ZM118.484 21.8205H118.482H118.484ZM118.367 21.8035C118.365 21.802 118.365 21.802 118.364 21.802C118.365 21.802 118.365 21.802 118.367 21.8035ZM118.175 21.7741C118.173 21.7741 118.172 21.7741 118.17 21.7741C118.172 21.7741 118.173 21.7741 118.175 21.7741ZM118.141 21.7695C118.136 21.7695 118.133 21.768 118.13 21.768C118.133 21.768 118.136 21.7695 118.141 21.7695ZM118.102 21.7633C118.098 21.7633 118.093 21.7618 118.09 21.7618C118.095 21.7633 118.096 21.7633 118.102 21.7633ZM118.067 21.7587C118.059 21.7571 118.055 21.7571 118.047 21.7556C118.053 21.7571 118.061 21.7571 118.067 21.7587ZM118.029 21.7525C118.021 21.7525 118.015 21.7509 118.007 21.7494C118.015 21.7509 118.019 21.7509 118.029 21.7525ZM117.987 21.7463C117.979 21.7463 117.975 21.7448 117.967 21.7448C117.973 21.7448 117.979 21.7463 117.987 21.7463ZM117.946 21.7417C117.938 21.7401 117.935 21.7401 117.927 21.7386C117.933 21.7386 117.938 21.7401 117.946 21.7417ZM117.907 21.7355C117.899 21.7339 117.892 21.7339 117.884 21.7324C117.892 21.7339 117.898 21.7339 117.907 21.7355ZM117.866 21.7293C117.859 21.7293 117.852 21.7277 117.844 21.7262C117.853 21.7277 117.858 21.7293 117.866 21.7293ZM117.826 21.7231C117.82 21.7231 117.812 21.7216 117.806 21.7216C117.812 21.7216 117.82 21.7231 117.826 21.7231ZM117.784 21.7185C117.776 21.7169 117.772 21.7169 117.766 21.7154C117.772 21.7169 117.778 21.7169 117.784 21.7185ZM117.744 21.7123C117.736 21.7107 117.727 21.7107 117.72 21.7092C117.729 21.7107 117.735 21.7107 117.744 21.7123ZM117.704 21.7076C117.693 21.7045 117.684 21.7045 117.672 21.7014C117.684 21.7045 117.693 21.7045 117.704 21.7076ZM117.664 21.7014C117.65 21.6999 117.64 21.6983 117.626 21.6953C117.638 21.6968 117.652 21.6999 117.664 21.7014ZM117.617 21.6953C117.604 21.6922 117.595 21.6922 117.583 21.6891C117.593 21.6906 117.606 21.6937 117.617 21.6953ZM117.572 21.6891C117.563 21.6875 117.553 21.686 117.541 21.6844C117.553 21.686 117.561 21.6875 117.572 21.6891ZM117.529 21.6829C117.521 21.6813 117.51 21.6798 117.501 21.6782C117.512 21.6798 117.52 21.6813 117.529 21.6829ZM117.486 21.6767C117.477 21.6751 117.47 21.6736 117.461 21.6736C117.469 21.6736 117.478 21.6751 117.486 21.6767ZM117.446 21.6705C117.437 21.669 117.429 21.669 117.42 21.6674C117.429 21.669 117.437 21.669 117.446 21.6705ZM117.406 21.6659C117.397 21.6643 117.386 21.6628 117.378 21.6612C117.386 21.6628 117.398 21.6643 117.406 21.6659ZM117.367 21.6597C117.357 21.6581 117.347 21.6581 117.337 21.6566C117.347 21.6581 117.357 21.6581 117.367 21.6597ZM117.324 21.655C117.315 21.6535 117.306 21.6519 117.295 21.6504C117.306 21.6519 117.315 21.6535 117.324 21.655ZM117.284 21.6488C117.274 21.6473 117.264 21.6458 117.255 21.6442C117.264 21.6458 117.274 21.6473 117.284 21.6488ZM117.243 21.6427C117.232 21.6427 117.221 21.6411 117.212 21.6396C117.221 21.6411 117.234 21.6427 117.243 21.6427ZM117.203 21.638C117.192 21.6365 117.183 21.6349 117.169 21.6334C117.181 21.6349 117.192 21.6365 117.203 21.638ZM117.161 21.6318C117.148 21.6303 117.137 21.6287 117.123 21.6272C117.135 21.6287 117.149 21.6303 117.161 21.6318ZM117.123 21.6272C117.109 21.6256 117.095 21.6241 117.081 21.6225C117.095 21.6241 117.108 21.6256 117.123 21.6272ZM117.081 21.6225C116.997 21.6102 116.915 21.5993 116.831 21.5901C116.914 21.5993 116.997 21.6102 117.081 21.6225ZM116.828 21.5885C116.814 21.587 116.803 21.5854 116.789 21.5839C116.8 21.5854 116.815 21.587 116.828 21.5885ZM116.786 21.5839C116.772 21.5823 116.76 21.5808 116.746 21.5792C116.76 21.5808 116.774 21.5823 116.786 21.5839ZM116.746 21.5777C116.717 21.5746 116.691 21.5715 116.663 21.5684C116.691 21.5715 116.717 21.5746 116.746 21.5777ZM116.66 21.5684C116.648 21.5653 116.635 21.5638 116.62 21.5622C116.635 21.5638 116.646 21.5653 116.66 21.5684ZM116.62 21.5622C116.606 21.5607 116.594 21.5591 116.58 21.5576C116.592 21.5591 116.608 21.5607 116.62 21.5622ZM116.579 21.5576C114.301 21.2729 111.994 21.092 109.66 21.0193C111.994 21.092 114.303 21.2729 116.579 21.5576ZM109.658 21.0193C109.644 21.0193 109.631 21.0193 109.617 21.0193C109.63 21.0193 109.645 21.0193 109.658 21.0193ZM109.615 21.0193C109.601 21.0177 109.588 21.0177 109.574 21.0177C109.588 21.0177 109.602 21.0177 109.615 21.0193ZM109.573 21.0177C109.559 21.0162 109.547 21.0162 109.533 21.0162C109.544 21.0162 109.561 21.0162 109.573 21.0177ZM109.528 21.0162C109.517 21.0162 109.502 21.0146 109.491 21.0146C109.503 21.0146 109.516 21.0162 109.528 21.0162ZM109.485 21.0146C109.474 21.0146 109.459 21.0146 109.448 21.0131C109.459 21.0146 109.473 21.0146 109.485 21.0146ZM109.442 21.0131C109.428 21.0131 109.418 21.0131 109.403 21.0131C109.417 21.0131 109.429 21.0131 109.442 21.0131ZM109.4 21.0131C109.388 21.0115 109.374 21.0115 109.361 21.0115C109.373 21.0115 109.389 21.0115 109.4 21.0131ZM109.357 21.0115C109.271 21.0084 109.187 21.0069 109.101 21.0053C109.187 21.0069 109.271 21.0084 109.357 21.0115ZM109.096 21.0038C109.083 21.0038 109.07 21.0038 109.057 21.0038C109.071 21.0038 109.083 21.0038 109.096 21.0038ZM109.055 21.0038C109.04 21.0038 109.031 21.0022 109.016 21.0022C109.03 21.0022 109.042 21.0038 109.055 21.0038ZM109.008 21.0022C108.997 21.0022 108.985 21.0022 108.974 21.0022C108.986 21.0022 108.996 21.0022 109.008 21.0022ZM108.964 21.0022C108.954 21.0007 108.943 21.0007 108.932 21.0007C108.942 21.0007 108.954 21.0007 108.964 21.0022ZM108.921 21.0007C108.911 21.0007 108.901 21.0007 108.891 21.0007C108.9 21.0007 108.911 21.0007 108.921 21.0007ZM108.878 20.9991C108.868 20.9991 108.859 20.9991 108.851 20.9991C108.861 20.9991 108.868 20.9991 108.878 20.9991ZM108.834 20.9991C108.825 20.9991 108.817 20.9992 108.808 20.9976C108.817 20.9992 108.826 20.9991 108.834 20.9991ZM108.792 20.9976C108.784 20.9976 108.774 20.9976 108.765 20.9976C108.773 20.9976 108.784 20.9976 108.792 20.9976ZM108.751 20.9976C108.742 20.9976 108.732 20.9961 108.723 20.9961C108.733 20.9961 108.74 20.9976 108.751 20.9976ZM108.708 20.9961C108.699 20.9961 108.691 20.9961 108.683 20.9961C108.691 20.9961 108.699 20.9961 108.708 20.9961ZM108.666 20.9961C108.657 20.9961 108.648 20.9961 108.64 20.9945C108.647 20.9961 108.657 20.9961 108.666 20.9961ZM108.624 20.9945C108.613 20.9945 108.602 20.9945 108.592 20.9945C108.603 20.9945 108.612 20.9945 108.624 20.9945ZM108.582 20.9945C108.568 20.9945 108.555 20.9945 108.54 20.993C108.553 20.9945 108.569 20.9945 108.582 20.9945ZM108.54 20.993C108.503 20.993 108.464 20.993 108.427 20.9914C108.465 20.993 108.502 20.993 108.54 20.993ZM106.76 20.9852C106.857 20.9852 106.955 20.9837 107.053 20.9837C107.063 20.9837 107.075 20.9837 107.085 20.9837C106.976 20.9852 106.869 20.9852 106.76 20.9852Z" fill="#FFF6AF"/>
<path d="M40.3574 63.2245C52.3756 38.4664 77.5772 21.3237 106.48 20.9927C106.573 20.9896 106.665 20.988 106.759 20.9865C106.868 20.9865 106.975 20.985 107.085 20.985C107.092 20.985 107.099 20.985 107.107 20.985C107.187 20.985 107.266 20.985 107.347 20.985C107.705 20.985 108.066 20.988 108.426 20.9927C108.463 20.9927 108.502 20.9942 108.539 20.9942C108.554 20.9942 108.567 20.9942 108.581 20.9958C108.584 20.9958 108.587 20.9958 108.59 20.9958C108.601 20.9958 108.612 20.9958 108.623 20.9958C108.628 20.9958 108.633 20.9958 108.638 20.9958C108.647 20.9958 108.656 20.9958 108.664 20.9973C108.669 20.9973 108.676 20.9973 108.682 20.9973C108.69 20.9973 108.698 20.9973 108.707 20.9973C108.712 20.9973 108.717 20.9973 108.722 20.9973C108.731 20.9973 108.741 20.9973 108.749 20.9989C108.755 20.9989 108.759 20.9989 108.764 20.9989C108.773 20.9989 108.783 20.9989 108.791 20.9989C108.797 20.9989 108.802 20.9989 108.807 20.9989C108.816 20.9989 108.824 20.9989 108.833 21.0004C108.838 21.0004 108.845 21.0004 108.849 21.0004C108.858 21.0004 108.868 21.0004 108.877 21.0004C108.88 21.0004 108.886 21.0004 108.89 21.0004C108.9 21.0004 108.91 21.002 108.92 21.002C108.926 21.002 108.926 21.002 108.931 21.002C108.942 21.002 108.952 21.002 108.964 21.002C108.967 21.002 108.97 21.002 108.973 21.002C108.984 21.0035 108.996 21.0035 109.007 21.0035C109.008 21.0035 109.014 21.0035 109.015 21.0035C109.03 21.0035 109.039 21.0035 109.054 21.0051H109.056C109.069 21.0051 109.082 21.0051 109.095 21.0051C109.096 21.0051 109.098 21.0051 109.1 21.0051C109.186 21.0082 109.27 21.0097 109.356 21.0128C109.358 21.0128 109.358 21.0128 109.36 21.0128C109.373 21.0128 109.387 21.0128 109.399 21.0128C109.401 21.0128 109.401 21.0128 109.403 21.0128C109.417 21.0143 109.427 21.0143 109.441 21.0143C109.443 21.0143 109.445 21.0143 109.447 21.0143C109.458 21.0143 109.473 21.0159 109.484 21.0159C109.485 21.0159 109.488 21.0159 109.49 21.0159C109.501 21.0159 109.516 21.0159 109.527 21.0174C109.53 21.0174 109.529 21.0174 109.532 21.0174C109.546 21.0174 109.558 21.0174 109.572 21.019C109.573 21.019 109.571 21.0174 109.573 21.019C109.587 21.019 109.6 21.019 109.614 21.019H109.616C109.63 21.0205 109.643 21.0205 109.658 21.0205C109.659 21.0205 109.657 21.0205 109.659 21.0205C111.993 21.0932 114.3 21.2742 116.577 21.5588H116.579C116.593 21.5604 116.605 21.5619 116.619 21.5635C116.634 21.565 116.646 21.5666 116.66 21.5681L116.663 21.5697C116.69 21.5728 116.716 21.5759 116.745 21.579C116.759 21.5821 116.771 21.5821 116.785 21.5851C116.786 21.5851 116.786 21.5851 116.788 21.5851C116.802 21.5867 116.813 21.5882 116.826 21.5898C116.828 21.5898 116.828 21.5898 116.829 21.5898C116.914 21.6006 116.997 21.6114 117.08 21.6223C117.094 21.6254 117.108 21.6269 117.122 21.6285C117.135 21.63 117.146 21.6316 117.16 21.6331C117.162 21.6331 117.168 21.6346 117.169 21.6346C117.182 21.6362 117.191 21.6377 117.203 21.6393C117.206 21.6393 117.206 21.6393 117.211 21.6408C117.22 21.6408 117.231 21.6424 117.242 21.6439C117.246 21.6455 117.249 21.6455 117.254 21.6455C117.263 21.647 117.272 21.6486 117.283 21.6501C117.286 21.6501 117.291 21.6517 117.294 21.6517C117.306 21.6532 117.314 21.6548 117.323 21.6548C117.326 21.6563 117.332 21.6563 117.335 21.6563C117.346 21.6579 117.355 21.6594 117.366 21.6609C117.369 21.6609 117.374 21.6625 117.377 21.6625C117.385 21.664 117.395 21.6656 117.405 21.6671C117.409 21.6671 117.414 21.6671 117.418 21.6687C117.428 21.6702 117.435 21.6702 117.445 21.6718C117.451 21.6733 117.454 21.6733 117.46 21.6733C117.469 21.6749 117.475 21.6764 117.485 21.678C117.489 21.678 117.495 21.6795 117.501 21.6795C117.509 21.6811 117.52 21.6826 117.528 21.6826C117.531 21.6841 117.538 21.6841 117.541 21.6857C117.552 21.6872 117.561 21.6872 117.572 21.6888C117.575 21.6903 117.578 21.6903 117.581 21.6903C117.594 21.6919 117.604 21.6934 117.615 21.695C117.618 21.695 117.623 21.6965 117.624 21.6965C117.638 21.6981 117.649 21.6996 117.663 21.7027C117.666 21.7027 117.668 21.7027 117.671 21.7027C117.683 21.7043 117.692 21.7058 117.704 21.7074C117.708 21.7089 117.714 21.7089 117.718 21.7105C117.726 21.7105 117.735 21.712 117.744 21.7135C117.751 21.7151 117.758 21.7151 117.764 21.7166C117.772 21.7166 117.777 21.7182 117.783 21.7182C117.789 21.7197 117.798 21.7213 117.804 21.7213C117.812 21.7228 117.818 21.7244 117.824 21.7244C117.831 21.7259 117.837 21.7259 117.844 21.7275C117.851 21.729 117.858 21.729 117.864 21.7306C117.871 21.7321 117.878 21.7321 117.883 21.7337C117.891 21.7337 117.898 21.7352 117.906 21.7367C117.912 21.7367 117.92 21.7383 117.926 21.7398C117.934 21.7398 117.937 21.7414 117.944 21.7414C117.95 21.7429 117.96 21.7445 117.966 21.7445C117.974 21.746 117.978 21.7476 117.986 21.7476C117.992 21.7491 118 21.7507 118.007 21.7507C118.014 21.7522 118.02 21.7522 118.027 21.7538C118.034 21.7553 118.04 21.7553 118.046 21.7569C118.054 21.7584 118.058 21.7584 118.066 21.7599C118.072 21.7599 118.083 21.7615 118.089 21.763C118.092 21.763 118.097 21.7646 118.101 21.7646C118.11 21.7661 118.12 21.7677 118.129 21.7692C118.132 21.7692 118.135 21.7692 118.14 21.7708C118.149 21.7723 118.16 21.7739 118.169 21.7754C118.17 21.7754 118.172 21.7754 118.173 21.7754C118.235 21.7847 118.301 21.794 118.363 21.8033C118.364 21.8033 118.364 21.8033 118.366 21.8033C118.392 21.8079 118.418 21.811 118.444 21.8156C118.456 21.8172 118.469 21.8187 118.481 21.8218H118.484C118.495 21.8234 118.507 21.8249 118.519 21.8265C118.521 21.8265 118.523 21.828 118.524 21.828C118.536 21.8296 118.546 21.8311 118.559 21.8326C118.561 21.8326 118.559 21.8326 118.561 21.8326C118.575 21.8357 118.584 21.8373 118.598 21.8388C118.599 21.8388 118.599 21.8388 118.601 21.8388C118.613 21.8419 118.627 21.8435 118.638 21.845C118.652 21.8466 118.664 21.8497 118.676 21.8512H118.678C141.97 25.44 161.704 39.8896 172.621 59.8971C159.948 42.0923 140.229 29.7125 117.568 26.8678C117.088 29.6228 112.564 31.7838 107.051 31.7838C101.636 31.7838 97.1759 29.6986 96.5652 27.0132C83.2015 28.8896 70.8443 34.1227 60.3936 41.8417C60.4123 41.8062 60.4313 41.7721 60.4494 41.7365V41.7381C60.3401 41.8386 60.2313 41.9407 60.1228 42.0428C52.3433 47.839 45.6301 55.0213 40.3574 63.2245" fill="#FCD199"/>
<path d="M118.111 112.407C118.135 112.397 118.158 112.388 118.182 112.377C118.158 112.388 118.134 112.397 118.111 112.407ZM118.201 112.369C118.219 112.362 118.234 112.356 118.251 112.349C118.233 112.356 118.22 112.362 118.201 112.369ZM118.274 112.338C118.29 112.331 118.31 112.324 118.325 112.317C118.309 112.324 118.291 112.331 118.274 112.338ZM118.343 112.31C118.367 112.299 118.387 112.29 118.411 112.281C118.389 112.29 118.366 112.3 118.343 112.31ZM118.414 112.28C118.438 112.269 118.462 112.259 118.488 112.249C118.463 112.259 118.438 112.269 118.414 112.28ZM118.492 112.247C118.513 112.238 118.537 112.228 118.558 112.218C118.536 112.228 118.514 112.238 118.492 112.247ZM118.571 112.213C118.593 112.205 118.611 112.196 118.633 112.187C118.612 112.195 118.592 112.205 118.571 112.213ZM118.643 112.182C118.666 112.173 118.689 112.164 118.712 112.153C118.69 112.164 118.666 112.173 118.643 112.182ZM118.714 112.152C118.766 112.131 118.813 112.11 118.863 112.089C118.814 112.11 118.765 112.131 118.714 112.152ZM118.869 112.086C118.891 112.077 118.914 112.067 118.936 112.058C118.913 112.067 118.892 112.077 118.869 112.086ZM118.943 112.055C119.043 112.012 119.141 111.97 119.24 111.928C119.141 111.97 119.043 112.012 118.943 112.055ZM119.242 111.926C119.467 111.829 119.689 111.734 119.914 111.637C119.69 111.734 119.466 111.83 119.242 111.926ZM119.917 111.635C120.016 111.592 120.113 111.55 120.212 111.506C120.114 111.549 120.015 111.593 119.917 111.635ZM120.215 111.504C120.313 111.462 120.412 111.419 120.51 111.376C120.412 111.419 120.313 111.462 120.215 111.504ZM120.516 111.373C120.612 111.331 120.711 111.286 120.808 111.244C120.71 111.287 120.614 111.33 120.516 111.373ZM120.815 111.241C120.836 111.232 120.859 111.222 120.881 111.211C120.86 111.222 120.836 111.232 120.815 111.241ZM120.887 111.209C120.958 111.177 121.033 111.144 121.105 111.113C121.033 111.144 120.959 111.177 120.887 111.209ZM121.114 111.108C121.136 111.098 121.154 111.091 121.175 111.081C121.156 111.09 121.134 111.099 121.114 111.108ZM121.187 111.076C121.211 111.065 121.232 111.056 121.256 111.046C121.232 111.056 121.212 111.065 121.187 111.076ZM121.256 111.045C121.304 111.023 121.353 111.001 121.401 110.981C121.353 111.001 121.304 111.023 121.256 111.045ZM121.413 110.975C121.433 110.967 121.453 110.957 121.472 110.949C121.453 110.957 121.433 110.967 121.413 110.975ZM121.485 110.943C121.505 110.934 121.524 110.925 121.544 110.916C121.526 110.925 121.504 110.934 121.485 110.943ZM121.558 110.91C121.605 110.889 121.65 110.869 121.696 110.848C121.65 110.869 121.605 110.889 121.558 110.91ZM121.717 110.839C121.733 110.831 121.749 110.824 121.766 110.816C121.75 110.824 121.732 110.832 121.717 110.839ZM121.788 110.807C121.803 110.8 121.819 110.793 121.835 110.786C121.818 110.793 121.804 110.799 121.788 110.807ZM121.857 110.775C121.875 110.767 121.894 110.759 121.912 110.751C121.895 110.758 121.874 110.768 121.857 110.775ZM121.926 110.744C121.947 110.734 121.973 110.723 121.994 110.714C121.972 110.724 121.948 110.734 121.926 110.744ZM122.011 110.706C122.029 110.698 122.044 110.691 122.062 110.684C122.045 110.691 122.028 110.699 122.011 110.706ZM122.087 110.671C122.1 110.665 122.114 110.659 122.128 110.653C122.114 110.659 122.1 110.665 122.087 110.671ZM122.159 110.64C122.171 110.634 122.182 110.628 122.195 110.623C122.182 110.628 122.171 110.633 122.159 110.64ZM122.226 110.609C122.236 110.604 122.249 110.598 122.26 110.593C122.248 110.598 122.237 110.604 122.226 110.609ZM122.325 110.563C122.336 110.558 122.345 110.555 122.354 110.55C122.346 110.554 122.334 110.559 122.325 110.563ZM122.393 110.533C122.401 110.529 122.411 110.524 122.418 110.52C122.41 110.524 122.401 110.528 122.393 110.533ZM122.459 110.502C122.467 110.499 122.476 110.495 122.483 110.491C122.476 110.495 122.467 110.499 122.459 110.502ZM122.527 110.471C122.529 110.471 122.531 110.47 122.532 110.469C122.531 110.47 122.529 110.471 122.527 110.471ZM122.703 110.391C122.705 110.39 122.707 110.39 122.71 110.388C122.708 110.389 122.705 110.39 122.703 110.391ZM122.766 110.362L122.768 110.361L122.766 110.362Z" fill="#5B6D54"/>
<path d="M70.3876 122.911C64.6847 122.911 59.1312 122.393 53.7877 121.333C51.1509 120.677 48.5678 119.888 46.0499 118.95C41.4083 117.222 38.0839 113.08 37.3293 108.159C36.6904 103.99 36.3929 99.7095 36.4686 95.3448C36.8328 74.3245 45.8956 55.4228 60.1234 42.0421C60.2138 41.974 60.3035 41.9073 60.3941 41.8406C55.0011 51.9591 51.8489 63.4597 51.6373 75.6754C51.6334 75.9052 51.6301 76.1351 51.6286 76.365C51.5208 89.1809 60.5781 100.192 73.0967 102.581C78.2663 103.568 83.6271 104.049 89.1294 104.049C104.325 104.049 120.598 100.378 136.868 93.5399C148.415 88.6857 158.908 82.6722 167.921 75.674C157.336 89.8918 141.606 101.713 122.769 110.36L122.766 110.362C122.748 110.37 122.73 110.379 122.71 110.387C122.707 110.388 122.706 110.39 122.703 110.39C122.645 110.417 122.59 110.442 122.532 110.468C122.531 110.469 122.529 110.471 122.528 110.471C122.512 110.478 122.498 110.484 122.484 110.491C122.476 110.493 122.467 110.498 122.46 110.501C122.446 110.508 122.433 110.513 122.419 110.52C122.412 110.523 122.401 110.529 122.393 110.532C122.378 110.537 122.369 110.543 122.355 110.549C122.345 110.554 122.336 110.557 122.326 110.563C122.304 110.572 122.283 110.583 122.26 110.593C122.249 110.597 122.237 110.603 122.226 110.608C122.216 110.613 122.205 110.617 122.195 110.623C122.182 110.628 122.171 110.633 122.16 110.638C122.15 110.642 122.139 110.647 122.129 110.652C122.115 110.658 122.101 110.665 122.088 110.671C122.079 110.675 122.071 110.678 122.063 110.684C122.044 110.691 122.029 110.698 122.012 110.705C122.005 110.708 122 110.711 121.995 110.713C121.974 110.722 121.948 110.733 121.927 110.745C121.921 110.746 121.919 110.747 121.913 110.749C121.895 110.759 121.876 110.766 121.858 110.774C121.851 110.777 121.842 110.782 121.835 110.786C121.82 110.793 121.804 110.8 121.787 110.807C121.78 110.81 121.773 110.813 121.766 110.816C121.749 110.823 121.734 110.83 121.717 110.838C121.711 110.841 121.703 110.844 121.696 110.848C121.649 110.868 121.604 110.889 121.559 110.909C121.553 110.912 121.549 110.913 121.545 110.916C121.525 110.925 121.507 110.933 121.486 110.942C121.481 110.945 121.477 110.946 121.473 110.948C121.453 110.956 121.433 110.966 121.415 110.975C121.409 110.976 121.407 110.977 121.402 110.98C121.354 111.001 121.305 111.023 121.257 111.044H121.256C121.233 111.055 121.212 111.064 121.188 111.075C121.185 111.077 121.18 111.078 121.175 111.081C121.154 111.089 121.137 111.098 121.115 111.108C121.11 111.109 121.109 111.111 121.105 111.112C121.034 111.143 120.959 111.177 120.888 111.209C120.885 111.21 120.885 111.21 120.882 111.211C120.859 111.22 120.837 111.231 120.816 111.24C120.813 111.241 120.811 111.243 120.809 111.243C120.711 111.287 120.612 111.329 120.517 111.372C120.515 111.373 120.511 111.375 120.511 111.376C120.412 111.419 120.315 111.461 120.216 111.504C120.215 111.505 120.215 111.505 120.213 111.505C120.113 111.549 120.017 111.59 119.917 111.634C119.916 111.636 119.914 111.636 119.914 111.636C119.69 111.734 119.467 111.829 119.243 111.925L119.24 111.927C119.141 111.969 119.043 112.012 118.944 112.054C118.941 112.054 118.94 112.056 118.937 112.057C118.914 112.067 118.892 112.076 118.869 112.086C118.868 112.087 118.865 112.088 118.863 112.088C118.813 112.11 118.766 112.13 118.715 112.151C118.715 112.152 118.715 112.152 118.712 112.152C118.69 112.162 118.667 112.172 118.643 112.182C118.64 112.183 118.638 112.185 118.633 112.186C118.612 112.196 118.594 112.203 118.571 112.212C118.567 112.213 118.563 112.216 118.559 112.217C118.538 112.227 118.514 112.237 118.492 112.246C118.491 112.246 118.49 112.247 118.488 112.247C118.463 112.259 118.439 112.269 118.415 112.279C118.412 112.28 118.412 112.28 118.412 112.28C118.388 112.29 118.368 112.298 118.344 112.308C118.337 112.311 118.332 112.314 118.326 112.315C118.31 112.323 118.291 112.331 118.275 112.338C118.268 112.341 118.26 112.344 118.253 112.348C118.234 112.355 118.219 112.361 118.202 112.369C118.195 112.371 118.188 112.375 118.182 112.376C118.158 112.388 118.136 112.396 118.112 112.406C101.845 119.244 85.5801 122.911 70.3876 122.911Z" fill="#BF6700"/>
<path d="M60.123 42.0413C60.2316 41.9388 60.3402 41.8377 60.4496 41.7366V41.7352C60.4314 41.7708 60.4126 41.805 60.3937 41.8406C60.3033 41.9075 60.2135 41.9744 60.123 42.0413Z" fill="#D19982"/>
<path d="M70.7931 49.6121C70.022 52.051 68.69 53.8359 67.8417 53.5651C66.9936 53.2928 66.9306 51.0631 67.7016 48.6228C68.4719 46.184 69.8048 44.399 70.6531 44.6699C71.4478 44.9252 71.5627 46.9038 70.9151 49.2038L70.7931 49.6121" fill="#FCE69F"/>
<path d="M83.381 51.1833C82.9459 53.7065 81.8663 55.656 80.989 55.5028C80.1125 55.3497 79.7489 53.1481 80.184 50.6263C80.6199 48.1032 81.6995 46.1537 82.576 46.3068C83.3983 46.4503 83.7782 48.3956 83.447 50.7628L83.381 51.1833Z" fill="#FCE69F"/>
<path d="M99.6312 50.6766C99.9855 53.2122 99.5523 55.401 98.6705 55.5249C97.7888 55.6503 96.7728 53.6661 96.4185 51.1305C96.0641 48.5963 96.4988 46.4075 97.3791 46.2835C98.2055 46.1666 99.1605 47.9001 99.5661 50.2561L99.6312 50.6766Z" fill="#FCE69F"/>
<path d="M113.221 45.4344C114.567 47.6063 115.053 49.7839 114.298 50.2577C113.544 50.7315 111.813 49.3328 110.468 47.1608C109.12 44.9889 108.635 42.8114 109.389 42.3375C110.097 41.8935 111.669 43.0894 112.989 45.0769L113.221 45.4344" fill="#FCE69F"/>
<path d="M123.643 36.7406C125.449 38.5465 126.415 40.5548 125.787 41.19C125.158 41.8237 123.159 40.8599 121.355 39.054C119.551 37.2482 118.583 35.2399 119.211 34.6047C119.8 34.0105 121.602 34.813 123.34 36.4443L123.643 36.7406Z" fill="#FCE69F"/>
<path d="M72.4691 91.0107C71.622 91.0107 70.9375 90.3211 70.9375 89.4701C70.9375 88.6179 71.622 87.9282 72.4691 87.9282C73.3151 87.9282 74.0007 88.6179 74.0007 89.4701C74.0007 90.3211 73.3151 91.0107 72.4691 91.0107Z" fill="#BF6700"/>
<path d="M97.1805 76.3695C96.3346 76.3695 95.6484 75.6792 95.6484 74.8284C95.6484 73.9763 96.3346 73.286 97.1805 73.286C98.0263 73.286 98.7125 73.9763 98.7125 74.8284C98.7125 75.6792 98.0263 76.3695 97.1805 76.3695Z" fill="#BF6700"/>
<path d="M102.243 92.4086C101.396 92.4086 100.711 91.7185 100.711 90.8682C100.711 90.0169 101.396 89.3268 102.243 89.3268C103.088 89.3268 103.775 90.0169 103.775 90.8682C103.775 91.7185 103.088 92.4086 102.243 92.4086Z" fill="#E99335"/>
<path d="M117.028 73.5429C116.181 73.5429 115.496 72.8528 115.496 72.0011C115.496 71.1506 116.181 70.4606 117.028 70.4606C117.874 70.4606 118.56 71.1506 118.56 72.0011C118.56 72.8528 117.874 73.5429 117.028 73.5429Z" fill="#E99335"/>
<path d="M132.845 86.1563C131.999 86.1563 131.312 85.466 131.312 84.616C131.312 83.7637 131.999 83.0746 132.845 83.0746C133.692 83.0746 134.378 83.7637 134.378 84.616C134.378 85.466 133.692 86.1563 132.845 86.1563Z" fill="#BF6700"/>
<path d="M134.893 62.8362C134.047 62.8362 133.361 62.1463 133.361 61.2955C133.361 60.4433 134.047 59.7534 134.893 59.7534C135.74 59.7534 136.425 60.4433 136.425 61.2955C136.425 62.1463 135.74 62.8362 134.893 62.8362Z" fill="#BF6700"/>
<path d="M145.907 49.629C145.062 49.629 144.375 48.9395 144.375 48.0888C144.375 47.238 145.062 46.5472 145.907 46.5472C146.753 46.5472 147.44 47.238 147.44 48.0888C147.44 48.9395 146.753 49.629 145.907 49.629Z" fill="#BF6700"/>
<path d="M72.7762 75.0046C71.9303 75.0046 71.2441 74.3146 71.2441 73.4628C71.2441 72.6123 71.9303 71.9223 72.7762 71.9223C73.6227 71.9223 74.3089 72.6123 74.3089 73.4628C74.3089 74.3146 73.6227 75.0046 72.7762 75.0046Z" fill="#E99335"/>
<path d="M160.934 64.1451C160.088 64.1451 159.402 63.4555 159.402 62.6047C159.402 61.7538 160.088 61.0629 160.934 61.0629C161.781 61.0629 162.466 61.7538 162.466 62.6047C162.466 63.4555 161.781 64.1451 160.934 64.1451Z" fill="#BF6700"/>
<path d="M150.999 80.9762C150.154 80.9762 149.467 80.2853 149.467 79.4345C149.467 78.5836 150.154 77.8939 150.999 77.8939C151.845 77.8939 152.531 78.5836 152.531 79.4345C152.531 80.2853 151.845 80.9762 150.999 80.9762Z" fill="#E99335"/>
<path d="M107.325 22.5875C67.7339 22.5875 35.1687 54.6323 34.4764 94.5707C34.4031 98.8074 34.6919 103.063 35.3356 107.218C35.9996 111.508 38.9047 115.106 42.9184 116.608C63.7515 124.404 90.2375 122.386 117.498 110.927C140.645 101.197 158.618 87.2773 169.471 70.6703C171.951 66.8794 172.057 61.9366 169.744 58.0803C156.669 36.2702 133.779 23.0053 108.515 22.5969C108.118 22.5906 107.72 22.5875 107.325 22.5875V22.5875ZM70.3517 124.52C60.1007 124.52 50.5295 122.878 41.8065 119.614C36.7133 117.708 33.0266 113.146 32.1852 107.711C31.514 103.376 31.2124 98.9352 31.289 94.5146C31.6413 74.1869 39.8953 55.1576 54.5305 40.934C69.1619 26.7151 88.3522 19.0523 108.566 19.3905C121.666 19.6025 134.534 23.2282 145.78 29.8747C156.7 36.3295 165.931 45.5105 172.474 56.4233C175.417 61.3318 175.284 67.6152 172.136 72.4317C160.932 89.5749 142.463 103.909 118.727 113.885C104.977 119.666 91.4595 123.13 78.5504 124.181C75.7729 124.407 73.0387 124.52 70.3517 124.52" fill="#6D184E"/>
<path d="M153.084 171.802C152.167 176.785 147.406 180.075 142.451 179.151C137.499 178.227 134.227 173.438 135.147 168.454C135.686 165.527 136.853 166.191 138.756 166.856C140.092 167.323 141.789 167.79 143.886 167.015C149.875 164.802 154.003 166.819 153.084 171.802" fill="#FCAF15"/>
<path d="M142.435 179.148H142.434H142.435ZM148.537 172.811C148.76 172.252 148.931 171.663 149.045 171.048C149.47 168.748 148.808 167.09 147.394 166.178C147.707 166.148 148.009 166.134 148.301 166.134C151.727 166.134 153.731 168.159 153.093 171.747C153.297 170.6 153.223 169.619 152.927 168.805C151.889 170.41 150.33 171.887 148.537 172.811M153.087 171.784C153.087 171.782 153.088 171.78 153.088 171.777C153.088 171.78 153.087 171.781 153.087 171.784ZM153.091 171.766C153.091 171.76 153.092 171.754 153.093 171.748C153.092 171.754 153.091 171.76 153.091 171.766Z" fill="#FED78A"/>
<path d="M142.451 179.151C142.446 179.15 142.442 179.149 142.436 179.148C142.44 179.149 142.446 179.15 142.451 179.151ZM152.502 173.744C152.762 173.133 152.959 172.483 153.084 171.802C153.086 171.797 153.087 171.79 153.088 171.784C153.087 171.79 153.086 171.796 153.084 171.802C152.959 172.483 152.762 173.133 152.502 173.744" fill="#D18126"/>
<path d="M135.148 168.454C135.148 168.452 135.148 168.449 135.15 168.446C135.148 168.449 135.148 168.452 135.148 168.454Z" fill="#6D184E"/>
<path d="M142.436 179.148C137.491 178.216 134.229 173.433 135.147 168.455C135.147 168.452 135.148 168.449 135.148 168.446C135.43 166.931 135.879 166.384 136.514 166.299C137.431 169.548 139.936 173.025 143.46 173.683C143.881 173.761 144.3 173.798 144.72 173.798C146.04 173.798 147.342 173.427 148.538 172.811C147.204 176.142 144.031 178.382 140.477 178.536C141.093 178.806 141.746 179.017 142.436 179.148M153.089 171.777C153.09 171.774 153.091 171.77 153.091 171.766C153.091 171.77 153.09 171.774 153.089 171.777ZM153.095 171.748C153.095 171.748 153.095 171.747 153.095 171.747C153.095 171.747 153.095 171.748 153.095 171.748Z" fill="#D18126"/>
<path d="M144.184 179.306C147.807 179.283 151.085 177.08 152.502 173.744C151.085 177.081 147.807 179.283 144.184 179.306" fill="#D3B392"/>
<path d="M144.126 179.306C143.574 179.306 143.013 179.256 142.452 179.151C142.446 179.15 142.441 179.149 142.436 179.148H142.435C141.747 179.017 141.093 178.806 140.477 178.536C144.032 178.382 147.203 176.142 148.539 172.811C150.331 171.887 151.89 170.41 152.928 168.804C153.223 169.619 153.298 170.6 153.095 171.746C153.095 171.747 153.095 171.748 153.095 171.748C153.093 171.754 153.093 171.76 153.092 171.766C153.09 171.77 153.09 171.774 153.089 171.777C153.089 171.78 153.088 171.782 153.088 171.784C153.087 171.79 153.086 171.796 153.084 171.802C152.96 172.483 152.761 173.132 152.503 173.744C151.085 177.08 147.807 179.283 144.184 179.306C144.163 179.306 144.145 179.306 144.126 179.306" fill="#D29D78"/>
<path d="M136.926 167.928C136.868 168.08 136.79 168.335 136.714 168.748C136.348 170.737 136.773 172.75 137.911 174.417C139.05 176.084 140.766 177.205 142.743 177.575C144.721 177.943 146.721 177.516 148.379 176.37C150.037 175.225 151.15 173.498 151.518 171.51C151.697 170.535 151.723 169.213 150.826 168.451C149.666 167.466 147.218 167.493 144.436 168.521C141.579 169.576 139.315 168.762 137.816 168.223C137.532 168.121 137.172 167.991 136.926 167.928V167.928ZM144.139 180.912C143.483 180.912 142.821 180.851 142.16 180.727C139.348 180.202 136.905 178.607 135.284 176.233C133.662 173.86 133.057 170.994 133.579 168.163C133.783 167.059 134.164 165.708 135.318 165.04C136.513 164.348 137.775 164.803 138.89 165.203C140.205 165.676 141.565 166.165 143.337 165.51C147.309 164.043 150.787 164.222 152.882 166C154.496 167.37 155.124 169.535 154.652 172.095C154.13 174.926 152.543 177.383 150.185 179.014C148.378 180.262 146.284 180.912 144.139 180.912" fill="#6D184E"/>
<path d="M164.947 108.6C165.591 108.897 166.344 108.821 166.954 108.461C169.476 106.971 177.532 102.045 178.889 99.1395C180.401 95.8994 160.394 106.496 164.947 108.6Z" fill="#E5525F"/>
<path d="M113.502 222.476C73.1947 222.476 40.5195 218.637 40.5195 213.903C40.5195 209.169 73.1947 205.331 113.502 205.331C153.807 205.331 186.483 209.169 186.483 213.903C186.483 218.637 153.807 222.476 113.502 222.476Z" fill="#F2A40C"/>
</svg>
